<svg id="Layer_2" data-name="Layer 2" xmlns="http://www.w3.org/2000/svg" width="74.004" height="74" viewBox="0 0 74.004 74">
  <g id="Layer_1" data-name="Layer 1">
    <path id="Caminho_2283" data-name="Caminho 2283" d="M74,36.279v1.445c-.084.223-.173.444-.253.669a4.154,4.154,0,0,1-3.394,2.891,3.751,3.751,0,0,1-4.089-1.693,2.16,2.16,0,0,0-2.435-1.135c-.166.016-.332.02-.578.035a26.351,26.351,0,0,1-6.684,16.051c1,1.012,1.961,1.985,2.952,2.928a.71.71,0,0,0,.616.03,5.834,5.834,0,0,1,3.025-.441,5.468,5.468,0,1,1-5.688,3.145c.077-.182.113-.512.009-.623-.955-1.012-1.946-1.985-2.959-3a26.814,26.814,0,0,1-7.481,4.7,27.136,27.136,0,0,1-8.607,1.967c0,.611.027,1.117-.007,1.619a.878.878,0,0,0,.578.994A4.282,4.282,0,0,1,40.627,72a5.035,5.035,0,0,1-2.891,2H36.279a11.938,11.938,0,0,1-1.135-.434,4.132,4.132,0,0,1-2.47-3.853A4.072,4.072,0,0,1,35,65.849a.852.852,0,0,0,.555-.932c-.038-.525-.009-1.055-.009-1.669a26.374,26.374,0,0,1-16.087-6.684c-1,1-1.982,1.961-2.925,2.95a.707.707,0,0,0-.033.616,5.819,5.819,0,0,1,.442,3.035,5.459,5.459,0,0,1-10.6,1.019A5.2,5.2,0,0,1,7.825,58.45a5.3,5.3,0,0,1,5.971-.99c.186.077.513.124.62.023,1.012-.955,1.985-1.947,3-2.962a26.474,26.474,0,0,1-6.672-16.084c-.61,0-1.116.027-1.617-.007a.878.878,0,0,0-.994.578A4.282,4.282,0,0,1,2,40.627a5.085,5.085,0,0,1-2-2.9V36.279c.084-.223.173-.444.253-.669a4.154,4.154,0,0,1,3.394-2.891,3.75,3.75,0,0,1,4.089,1.693,2.162,2.162,0,0,0,2.435,1.135c.166-.016.332-.02.578-.035a26.341,26.341,0,0,1,6.684-16.053c-1.012-1-1.961-1.983-2.952-2.928a.711.711,0,0,0-.616-.029,5.836,5.836,0,0,1-3.035.434,5.467,5.467,0,1,1,5.7-3.142c-.077.182-.113.512-.009.622.955,1.012,1.946,1.986,2.957,3a26.449,26.449,0,0,1,16.087-6.672c0-.613-.027-1.119.007-1.622A.876.876,0,0,0,35,8.13a4.281,4.281,0,0,1-1.619-6.137A5.094,5.094,0,0,1,36.279,0h1.445c.223.084.442.173.668.251a4.154,4.154,0,0,1,2.891,3.394,3.753,3.753,0,0,1-1.691,4.09,2.159,2.159,0,0,0-1.135,2.434c.016.166.02.334.035.578a26.34,26.34,0,0,1,16.051,6.684c1.012-1.012,1.985-1.961,2.928-2.95a.714.714,0,0,0,.03-.617,5.819,5.819,0,0,1-.441-3.024A5.468,5.468,0,0,1,67.626,9.681a5.241,5.241,0,0,1-1.4,5.825,5.288,5.288,0,0,1-6.024,1.035c-.185-.077-.512-.121-.62-.02-1.012.955-1.985,1.946-3,2.957a26.452,26.452,0,0,1,6.67,16.087c.613,0,1.119-.027,1.62.007a.878.878,0,0,0,.994-.578,4.281,4.281,0,0,1,6.137-1.62A5.1,5.1,0,0,1,74,36.279Zm-13.6.7A23.405,23.405,0,1,0,37.021,60.407,23.5,23.5,0,0,0,60.407,36.983ZM11.594,8.946a2.574,2.574,0,0,0-2.632,2.57,2.594,2.594,0,1,0,5.188.009,2.586,2.586,0,0,0-2.555-2.579Zm53.465,2.671a2.576,2.576,0,0,0-2.547-2.655,2.6,2.6,0,1,0,2.547,2.655ZM8.946,62.441a2.573,2.573,0,0,0,2.521,2.6,2.6,2.6,0,1,0,.042-5.192,2.593,2.593,0,0,0-2.563,2.59Zm53.48,2.625a1.829,1.829,0,1,1,.006-.007ZM38.448,4.328A1.456,1.456,0,0,0,37.014,2.9a1.487,1.487,0,0,0-1.431,1.445,1.487,1.487,0,0,0,1.445,1.427A1.458,1.458,0,0,0,38.448,4.328ZM5.766,37.02a1.464,1.464,0,0,0-1.4-1.463A1.463,1.463,0,0,0,2.9,36.949a1.483,1.483,0,0,0,1.4,1.473A1.48,1.48,0,0,0,5.766,37.02Zm65.332.009a1.432,1.432,0,1,0-1.44,1.424A1.432,1.432,0,0,0,71.1,37.028ZM36.986,71.1a1.432,1.432,0,1,0-1.436-1.429A1.432,1.432,0,0,0,36.986,71.1Z" fill="#fff"/>
    <path id="Caminho_2284" data-name="Caminho 2284" d="M286.2,160.331a6.062,6.062,0,1,1,6.073-6.049,6.109,6.109,0,0,1-6.073,6.049Zm3.161-6.052a3.157,3.157,0,1,0-.926,2.238A3.18,3.18,0,0,0,289.361,154.279Z" transform="translate(-239.64 -126.785)" fill="#fff"/>
    <path id="Caminho_2285" data-name="Caminho 2285" d="M306.292,310.009a5.18,5.18,0,1,1,5.156-5.2,5.218,5.218,0,0,1-5.156,5.2Zm-.046-2.891a.952.952,0,1,0,0,.006Z" transform="translate(-257.553 -256.339)" fill="#fff"/>
    <path id="Caminho_2286" data-name="Caminho 2286" d="M132.6,163.84a5.19,5.19,0,1,1-.01,10.38,5.19,5.19,0,1,1,.01-10.38Zm-.009,2.891a2.3,2.3,0,0,0-2.3,2.275,2.337,2.337,0,0,0,2.277,2.323A2.3,2.3,0,0,0,134.887,169a2.262,2.262,0,0,0-2.294-2.271Z" transform="translate(-108.986 -140.159)" fill="#fff"/>
    <path id="Caminho_2287" data-name="Caminho 2287" d="M165.86,318.562a4.351,4.351,0,0,1,4.286-4.364,4.4,4.4,0,0,1,4.361,4.312,4.323,4.323,0,0,1-8.646.052Zm4.28-1.463a1.457,1.457,0,0,0-1.386,1.47,1.418,1.418,0,0,0,1.453,1.389,1.445,1.445,0,0,0,1.395-1.453A1.479,1.479,0,0,0,170.14,317.1Z" transform="translate(-141.886 -268.784)" fill="#fff"/>
    <path id="Caminho_2288" data-name="Caminho 2288" d="M233.613,179.748c-.014,1.07-.434,1.59-1.12,1.753a1.312,1.312,0,0,1-1.571-.835c-.38-1.388-.705-2.794-.955-4.21a1.387,1.387,0,0,1,2.668-.637C233.041,177.223,233.347,178.656,233.613,179.748Z" transform="translate(-196.711 -149.657)" fill="#fff"/>
    <path id="Caminho_2289" data-name="Caminho 2289" d="M249.07,247.514a1.473,1.473,0,0,1-1.427,1.434,1.434,1.434,0,1,1,0-2.868A1.476,1.476,0,0,1,249.07,247.514Z" transform="translate(-210.623 -210.512)" fill="#fff"/>
    <path id="Caminho_2290" data-name="Caminho 2290" d="M144.044,271.735a1.433,1.433,0,1,1-1.414-1.45A1.433,1.433,0,0,1,144.044,271.735Z" transform="translate(-120.773 -231.217)" fill="#fff"/>
    <path id="Caminho_2291" data-name="Caminho 2291" d="M378.47,246a1.474,1.474,0,0,1,1.4,1.46,1.436,1.436,0,1,1-2.871-.066A1.467,1.467,0,0,1,378.47,246Z" transform="translate(-322.509 -210.443)" fill="#fff"/>
    <path id="Caminho_2292" data-name="Caminho 2292" d="M266.533,351a1.423,1.423,0,1,1-1.466,1.382A1.445,1.445,0,0,1,266.533,351Z" transform="translate(-226.755 -300.266)" fill="#fff"/>
    <path id="Caminho_2293" data-name="Caminho 2293" d="M225.277,144.44a1.425,1.425,0,1,1-1.444-1.4A1.445,1.445,0,0,1,225.277,144.44Z" transform="translate(-190.278 -122.365)" fill="#fff"/>
  </g>
</svg>
