<svg xmlns="http://www.w3.org/2000/svg" width="54.682" height="83.566" viewBox="0 0 54.682 83.566">
  <g id="Page-1_1_" transform="translate(0.001 -0.01)">
    <g id="_x30_04---Pregnant-Woman_1_" transform="translate(-0.001 0.01)">
      <path id="Shape_3_" d="M11.721,71.086a30.686,30.686,0,0,0-2.349,11.1,1.392,1.392,0,0,0,1.392,1.392H52.548a1.392,1.392,0,0,0,1.373-1.622c-.114-.7-2.882-17.048-8.484-28.246a21.552,21.552,0,0,1-1.908-9.036,85.887,85.887,0,0,0,8.913,1.3l.1,0A1.393,1.393,0,0,0,53.9,44.917c2.244-8.97,1.838-21.391,1.569-29.611-.072-2.187-.139-4.084-.139-5.515A10.58,10.58,0,0,0,52.34,2.437,7.529,7.529,0,0,0,46.905.01H30.5a4.154,4.154,0,0,0-3.576,2.021,25.423,25.423,0,0,1-7.363,8,12.87,12.87,0,0,1-2.345,1.224,8.231,8.231,0,0,0-5.228,8.117,9.814,9.814,0,0,0,3.188,6.893,7.68,7.68,0,0,0-.852.364,6.277,6.277,0,0,0-3.385,4.224,22.086,22.086,0,0,0-9.92,19.3C1.015,61.709,6.594,67.866,11.721,71.086ZM29.3,3.47A1.4,1.4,0,0,1,30.5,2.793h6.638c-.289,2.7-1.533,8.357-6.87,8.357a36.188,36.188,0,0,1-6.765-.641A30.846,30.846,0,0,0,29.3,3.47Zm-14.533,15.8a5.432,5.432,0,0,1,3.47-5.432,15.541,15.541,0,0,0,2.283-1.159,38.535,38.535,0,0,0,9.749,1.254c6.951,0,9.285-6.653,9.68-11.143h2.494A74.214,74.214,0,0,0,41.118,30.86a48.258,48.258,0,0,0-6.529-.8,24.741,24.741,0,0,1-5.269-.728c-1.17-.39-2.368-.881-3.516-1.356a32.081,32.081,0,0,0-5.623-1.931,7.528,7.528,0,0,1-5.412-6.769Zm.8,9.837a5.923,5.923,0,0,1,3.842-.388,1.52,1.52,0,0,0,.353.072,31.316,31.316,0,0,1,4.972,1.753c1.2.493,2.435,1,3.7,1.425a26.2,26.2,0,0,0,5.941.862c3.968.3,8.468.632,11.77,3.109a1.393,1.393,0,0,0,1.671-2.23,14.716,14.716,0,0,0-3.725-1.981A70.394,70.394,0,0,1,45.3,2.793h1.609a4.877,4.877,0,0,1,3.449,1.59,7.942,7.942,0,0,1,2.192,5.375c0,1.487.062,3.416.139,5.638.251,7.705.627,19.171-1.213,27.673-4.219-.472-18.9-2.531-31.532-9.378a12.291,12.291,0,0,0-6.064-2.9,3.579,3.579,0,0,1,1.686-1.671Zm-3.429,4.325h.021a9.346,9.346,0,0,1,5.979,2.378,1.423,1.423,0,0,0,.318.238A86.319,86.319,0,0,0,40.71,44.085a24.723,24.723,0,0,0,2.228,10.864c4.42,8.825,7.089,21.406,7.939,25.842H12.228a27.807,27.807,0,0,1,1.95-8.357,32.14,32.14,0,0,0,13.78,3,35.022,35.022,0,0,0,3.858-.214,1.393,1.393,0,0,0-.31-2.768,29.627,29.627,0,0,1-17.3-3.119C9.457,66.682,3.8,61.211,3.8,50.15c0-7.253,2.825-12.858,8.336-16.715Z" transform="translate(-0.999 -0.01)" fill="#fff"/>
      <path id="Shape_2_" d="M51.456,290.111c.792.659,1.632,1.363,2.517,2.122a1.393,1.393,0,0,0,1.81,0c.885-.757,1.725-1.461,2.517-2.122,4.658-3.88,7.722-6.444,7.722-10.415a6.384,6.384,0,0,0-6.268-6.627,6.7,6.7,0,0,0-4.875,2.1A6.693,6.693,0,0,0,50,273.07a6.384,6.384,0,0,0-6.268,6.627c0,3.973,3.065,6.535,7.72,10.415Zm-1.451-14.257a4.306,4.306,0,0,1,3.632,2.246,1.392,1.392,0,0,0,1.234.759h.008a1.4,1.4,0,0,0,1.239-.759,4.3,4.3,0,0,1,3.635-2.246,3.593,3.593,0,0,1,3.481,3.841c0,2.669-2.528,4.781-6.718,8.277-.526.439-1.072.894-1.639,1.373-.566-.48-1.115-.935-1.639-1.373-4.19-3.5-6.718-5.608-6.718-8.277a3.593,3.593,0,0,1,3.485-3.841Z" transform="translate(-36.757 -228.502)" fill="#fff"/>
    </g>
  </g>
</svg>
