<svg xmlns="http://www.w3.org/2000/svg" width="75.34" height="78.783" viewBox="0 0 75.34 78.783">
  <g id="Grupo_37" data-name="Grupo 37" transform="translate(2 1)">
    <path id="Caminho_2196" data-name="Caminho 2196" d="M70.752,1.722H35.812a2.59,2.59,0,0,0-2.59,2.59v34.94a2.59,2.59,0,0,0,2.59,2.59h1.776v4.423a7.875,7.875,0,0,1-7.864,7.864H24.429a7.875,7.875,0,0,1-7.864-7.864V25.835a13.047,13.047,0,1,0-5.184,0V46.267A13.063,13.063,0,0,0,24.429,59.315h5.295A13.063,13.063,0,0,0,42.771,46.267V41.843h3.552V59.369a7.875,7.875,0,0,1-7.864,7.864h-18a6.877,6.877,0,0,0-6.393-4.367H9.514A6.876,6.876,0,0,0,3.12,67.233H2.59a2.59,2.59,0,1,0,0,5.181h.53a6.877,6.877,0,0,0,6.393,4.369h4.55a6.876,6.876,0,0,0,6.393-4.367h18A13.063,13.063,0,0,0,51.5,59.369V41.843H70.749a2.59,2.59,0,0,0,2.59-2.59V4.312A2.586,2.586,0,0,0,70.752,1.722ZM6.262,14.584a1.552,1.552,0,0,0,0-3.071,7.863,7.863,0,0,1,15.424,0,1.582,1.582,0,0,0-.871.434,1.553,1.553,0,0,0,.871,2.637,7.886,7.886,0,0,1-6.176,6.176,1.552,1.552,0,0,0-3.071,0A7.886,7.886,0,0,1,6.262,14.584ZM15.75,69.914A1.688,1.688,0,0,1,14.064,71.6H9.514a1.688,1.688,0,0,1-1.686-1.686v-.184a1.688,1.688,0,0,1,1.686-1.686h4.55a1.688,1.688,0,0,1,1.686,1.686v.184ZM38.4,6.9h3.552V36.66H38.4ZM68.159,36.66H47.138V6.9H68.159Z" transform="translate(-1)" fill="#fff" stroke="#343131" stroke-width="2"/>
    <path id="Caminho_2197" data-name="Caminho 2197" d="M49.6,35.037a1.556,1.556,0,0,0,1.556-1.554V29.114a1.554,1.554,0,1,0-3.108,0V33.48A1.549,1.549,0,0,0,49.6,35.037Z" transform="translate(-35.628 -20.435)" fill="#fff" stroke="#343131" stroke-width="2"/>
  </g>
</svg>
