<svg fill="white" height="200px" width="200px" version="1.1" xmlns="http://www.w3.org/2000/svg" viewBox="0 0 512 512" xmlns:xlink="http://www.w3.org/1999/xlink" enable-background="new 0 0 512 512"><g fill="#fff" id="SVGRepo_bgCarrier" stroke-width="0"></g><g fill="#fff" id="SVGRepo_tracerCarrier" stroke-linecap="round" stroke-linejoin="round"></g><g fill="#fff" id="SVGRepo_iconCarrier"> <g> <g> <path fill="#fff" d="m298.6,468.1c0.3-108.2-30.2-166.4-42.6-166.4-12.4,0-42.6,58.2-42.6,166.2 0,9.4-3.9,18.2-10.8,24.4-11.3,10.1-29.1,11.4-41.8,2.8-58.4-39.5-108.2-112.2-133-194.3-26.4-87.4-21.5-173.1 13.2-229.1 20.2-32.6 49.1-53 83.6-58.9 27.7-4.7 57.4,0.2 87,14.6 27.4,13.3 61.4,13.3 88.9,0 29.5-14.4 59.3-19.4 86.9-14.6 34.5,5.9 63.4,26.3 83.6,58.9 34.7,56.1 39.6,141.7 13.2,229.1-24.8,82.1-74.5,154.9-133,194.3-18.5,12.5-52.7,7.9-52.6-27zm-167.1-415.1c-22.9,4.4-41.7,17.4-55.7,40.2-28.3,45.5-31.6,120.6-8.9,195.8 20.6,68.1 59.7,128.5 105.9,164.4 2.5-95.5 28.7-192.5 83.2-192.5 54.5,0 80.8,97.2 83.2,192.5 46.2-35.9 85.3-96.3 105.9-164.4 22.7-75.2 19.4-150.3-8.8-195.8-14.1-22.7-32.8-36.2-55.7-40.2-19.3-3.3-40.5,0.5-62.3,11.1-38.5,18.6-86,18.6-124.5,0-16.8-8.1-46.4-14.2-62.3-11.1z"></path> </g> </g> </g></svg>