<svg id="Grupo_1234" data-name="Grupo 1234" xmlns="http://www.w3.org/2000/svg" xmlns:xlink="http://www.w3.org/1999/xlink" width="141.506" height="112.335" viewBox="0 0 141.506 112.335">
  <defs>
    <clipPath id="clip-path">
      <rect id="Retângulo_747" data-name="Retângulo 747" width="141.506" height="112.335" fill="none"/>
    </clipPath>
  </defs>
  <g id="Grupo_1233" data-name="Grupo 1233" clip-path="url(#clip-path)">
    <path id="Caminho_2454" data-name="Caminho 2454" d="M26.807,112.317a3.759,3.759,0,0,1-1.962-3.88c.1-2.021-.029-4.052.047-6.075.035-.927-.263-1.123-1.143-1.118-6.676.037-13.352.022-20.028.019C.908,101.262,0,100.353,0,97.531q0-8.287,0-16.574C0,70.6,5.874,63.249,16,60.917c2.327-.536,4.637-1.148,6.974-1.636.861-.18,1.007-.574,1.072-1.385A3.966,3.966,0,0,0,22.258,54,16.362,16.362,0,0,1,15.64,41.9a75.227,75.227,0,0,1,.142-15.436c1.277-9.44,11.2-16.481,20.6-14.855a18.7,18.7,0,0,1,10.455,5.411c.155.159.34.288.532.448C51.264,5.5,61.621-.248,71.08.008,82.049.3,90.45,6.7,94.06,17.289c.6.03.8-.524,1.145-.836,5.338-4.791,11.511-6.338,18.3-4.075,6.885,2.3,11.234,7.236,12.188,14.47A55.614,55.614,0,0,1,125.5,43.9a16.85,16.85,0,0,1-6.973,10.715c-.85.63-1.509,3.313-1,4.2.2.358.611.354.958.438,2.589.624,5.189,1.205,7.766,1.875,8.4,2.181,13.436,7.516,15.013,16.078.02.108.149.2.226.3v.276a2.114,2.114,0,0,0,0,1.658V99.053c-.536,2.006-1.322,2.615-3.576,2.625-5.979.026-11.959.007-17.938.01-.414,0-.828-.007-1.242,0-1.537.034-1.662.145-1.685,1.646-.029,1.931.059,3.865-.039,5.794s-.763,2.694-2.6,3.186H81.8c-1.766-.463-2.328-1.11-2.548-2.927.483-2.036,1.612-2.945,3.864-2.975,3.5-.047,7-.009,10.5-.016,1.883,0,1.886-.008,1.889-1.946q0-4.351,0-8.7a8.147,8.147,0,0,1,.077-1.515,3.424,3.424,0,0,1,2.82-2.671,3.259,3.259,0,0,1,3.164,2.225,6.071,6.071,0,0,1,.247,2.046c0,2.993-.011,5.985.008,8.978.009,1.446.136,1.568,1.59,1.58,1.98.017,3.96,0,5.939.007.793,0,1.38-.185,1.342-1.134-.191-4.681.457-9.406-.338-14.043-1.254-7.316-5.384-12.572-12.328-15.256-4.769-1.843-9.887-2.547-14.841-3.792-.915-.23-1.215.367-1.512,1.034-1.4,3.154-2.775,6.322-4.176,9.478-1.139,2.567-2.249,5.146-3.386,7.713-.149.337-.317.665-.492.989A3.177,3.177,0,0,1,70.647,93.3a3.094,3.094,0,0,1-2.8-1.934c-1.479-3.019-2.725-6.142-4.107-9.2-1.325-2.937-2.607-5.894-3.87-8.858a1.565,1.565,0,0,0-2.149-1.062c-4.276,1.117-8.653,1.873-12.865,3.2-7.551,2.377-12.041,7.652-13.736,15.343a16.569,16.569,0,0,0-.341,3.7q.037,5.248,0,10.5c-.006.961.28,1.453,1.337,1.431,2.071-.044,4.144-.037,6.215,0,1.038.017,1.361-.463,1.354-1.43-.023-2.946-.011-5.893-.007-8.84a8.623,8.623,0,0,1,.127-1.925,3.284,3.284,0,0,1,3.26-2.646,3.4,3.4,0,0,1,2.893,3.056c.045.458.028.92.029,1.38q0,4.074,0,8.149c0,2.244,0,2.244,2.314,2.247,2.993,0,5.986-.032,8.978.014,2.231.035,3.14.785,3.725,2.933-.267,1.967-.721,2.523-2.421,2.971Z" transform="translate(0 0)"/>
    <path id="Caminho_2455" data-name="Caminho 2455" d="M330.461,299.378a3.422,3.422,0,0,0,2.2-3.709c-.061-1.975.054-3.958-.04-5.931-.053-1.1.18-1.459,1.381-1.446,6.622.07,13.245,0,19.868.053,1.754.013,3.034-.52,3.673-2.23,0,4.145-.019,8.29.019,12.434.006.692-.157.849-.848.847-8.751-.027-17.5-.018-26.253-.018" transform="translate(-216.055 -187.061)" fill="#fefefe"/>
    <path id="Caminho_2456" data-name="Caminho 2456" d="M199.005,313.4h-1.382a2.68,2.68,0,0,1-2.29-2.825,3.144,3.144,0,0,1,2.952-3.01c1.6-.045,2.777,1.061,3.149,2.965-.282,1.961-.662,2.41-2.43,2.871" transform="translate(-127.708 -201.086)" fill="#010101"/>
    <path id="Caminho_2457" data-name="Caminho 2457" d="M178.541,315.6a3.4,3.4,0,0,0,2.011,2.76h-11.33a3.438,3.438,0,0,0,2.185-2.766,1.285,1.285,0,0,1,.983-.4q2.585-.107,5.172,0a1.267,1.267,0,0,1,.979.4" transform="translate(-110.638 -206.038)" fill="#fefefe"/>
    <path id="Caminho_2458" data-name="Caminho 2458" d="M205.94,318.221a3.5,3.5,0,0,0,2.207-2.764,9,9,0,0,1,6.048,0,3.236,3.236,0,0,0,2.246,2.762Z" transform="translate(-134.643 -205.904)" fill="#fdfdfd"/>
    <path id="Caminho_2459" data-name="Caminho 2459" d="M408.065,226.315a1.215,1.215,0,0,1,0-1.658Z" transform="translate(-266.577 -146.88)" fill="#282828"/>
    <path id="Caminho_2460" data-name="Caminho 2460" d="M136.748,244.744l-6.048,0a3.378,3.378,0,0,0-1.582-2.419c-1.792-.907-3.554.148-4.018,2.423l-7.133-.006c-.7-2.267-1.369-2.758-3.773-2.76-3.408,0-6.816-.041-10.222.024-1,.019-1.211-.3-1.2-1.239.055-3.5.034-7,.016-10.5a2.835,2.835,0,0,0-2.044-3.065c-1.837-.533-3.443.812-3.467,3-.039,3.5-.049,7,.013,10.5.018,1-.193,1.348-1.267,1.309-2.483-.089-4.972-.029-7.459-.028-.5,0-1.011.1-.987-.717.14-4.828-.457-9.7.271-14.481,1.328-8.726,6.446-14.348,14.9-16.78,4.235-1.219,8.578-2.06,12.853-3.148.885-.225,1.195.032,1.523.786,2.637,6.069,5.313,12.121,7.972,18.18a4,4,0,0,0,1.219,1.8c1.531,1.1,3.407.523,4.279-1.415,1.64-3.646,3.221-7.318,4.827-10.979,1.107-2.525,2.238-5.04,3.31-7.579.3-.7.594-.983,1.416-.775,4.455,1.123,8.956,2.075,13.384,3.294a19.891,19.891,0,0,1,14.678,18.614c.139,4.077.018,8.163.066,12.244.01.832-.307.982-1.044.971-2.532-.037-5.066-.057-7.6.009-.9.024-1.053-.3-1.043-1.105.04-3.453.014-6.907.019-10.36a3.593,3.593,0,0,0-.535-2.239,2.57,2.57,0,0,0-2.887-1.109,2.737,2.737,0,0,0-2.1,2.88c-.032,3.131-.01,6.262-.011,9.393a11.263,11.263,0,0,0,.01,1.38c.111.888-.2,1.171-1.123,1.158-3.913-.052-7.828-.029-11.742-.019-2.148.006-2.94.648-3.479,2.762" transform="translate(-57.196 -135.188)" fill="#5cd2c8"/>
    <path id="Caminho_2461" data-name="Caminho 2461" d="M156.3,79.423a26.273,26.273,0,0,0,17.809-5.574c.145-.113.3-.213.443-.329,2.124-1.715,2.123-1.715,4.534-.3q3.862,2.267,7.726,4.531c.427.251.885.426.858,1.1-.135,3.306.247,6.626-.258,9.922a18.758,18.758,0,0,1-37.109-.386c-.375-2.707-.119-5.422-.226-8.131-.027-.689.248-.856.883-.841,1.564.035,3.129.011,5.342.011" transform="translate(-98.116 -47.2)" fill="#78b4d0"/>
    <path id="Caminho_2462" data-name="Caminho 2462" d="M187.428,34.778c-.485,0-.822-.352-1.2-.574-2.781-1.619-5.544-3.271-8.326-4.888-1.838-1.068-2.968-.932-4.4.653a21.139,21.139,0,0,1-8.448,5.79,18.781,18.781,0,0,1-6.187,1.255c-2.624.045-5.249.02-7.873.054-.637.008-.961-.065-1.005-.865a19.018,19.018,0,0,1,15.666-20.058c10.992-2.029,21.81,6.778,21.916,17.849,0,.254.119.542-.136.785" transform="translate(-98.037 -10.364)" fill="#0069d0"/>
    <path id="Caminho_2463" data-name="Caminho 2463" d="M345.73,208.969c0,2.577-.03,5.154.02,7.73.016.8-.24,1.028-1.012.988a26.111,26.111,0,0,0-3.449.006c-.977.078-1.11-.341-1.1-1.18.039-3.543.029-7.086.011-10.629-.009-1.73-.8-2.856-2.131-3.129-1.9-.39-3.355.846-3.379,2.971-.039,3.543-.06,7.087.017,10.628.024,1.109-.306,1.387-1.369,1.341-1.975-.085-3.957-.048-5.935-.012-.708.013-1.06-.085-1.06-.943a25.651,25.651,0,0,0-5.2-15.953,1.24,1.24,0,0,1-.148-1.391c1.716-4.059,3.406-8.13,5.108-12.2.151-.362.209-.843.826-.663,3.825,1.114,7.914,1.371,11.491,3.271,4.815,2.557,7.13,6.733,7.3,12.12.073,2.344.012,4.693.014,7.04" transform="translate(-209.77 -121.933)" fill="#0069d0"/>
    <path id="Caminho_2464" data-name="Caminho 2464" d="M15.934,208.982c0-2.163-.009-4.327,0-6.491.035-6.983,3.957-12.114,10.708-13.919,2.573-.688,5.191-1.2,7.769-1.873.646-.168.892-.027,1.127.543,1.677,4.075,3.361,8.148,5.085,12.2a1.32,1.32,0,0,1-.216,1.5,25.25,25.25,0,0,0-5.115,15.694c.007.89-.212,1.177-1.13,1.145-2.069-.071-4.143-.06-6.213,0-.8.021-.987-.249-.979-1.009.037-3.59.027-7.181.011-10.771-.007-1.737-.785-2.866-2.1-3.152-1.89-.41-3.38.827-3.4,2.94-.042,3.544-.051,7.09.012,10.633.018,1.042-.2,1.477-1.329,1.364a21.8,21.8,0,0,0-3.311-.008c-.726.039-.94-.187-.927-.92.043-2.623.017-5.247.017-7.871" transform="translate(-10.406 -122.02)" fill="#0069d0"/>
    <path id="Caminho_2465" data-name="Caminho 2465" d="M274.532,92.763c1.88.722,3.527,1.4,5.207,1.991,5.842,2.056,11.914,2.086,18,2.005,2.233-.029,2.174,0,2.245,2.225.149,4.689-1.193,8.733-5.04,11.646a12.629,12.629,0,0,1-20.179-8.2c-.478-3.159-.1-6.339-.231-9.67" transform="translate(-179.476 -60.648)" fill="#78b4d0"/>
    <path id="Caminho_2466" data-name="Caminho 2466" d="M86.058,93.094c-.258,3.951.6,7.99-.827,11.855a12.06,12.06,0,0,1-11.042,8.421c-5.05.383-8.979-1.8-11.724-6.077-1.922-3-1.919-6.353-1.869-9.728.011-.752.5-.622.944-.625,2.532-.013,5.065,0,7.6-.037a39.012,39.012,0,0,0,15.505-3.431c.335-.15.674-.291,1.017-.42.074-.028.175.015.4.041" transform="translate(-39.608 -60.832)" fill="#78b4d0"/>
    <path id="Caminho_2467" data-name="Caminho 2467" d="M66.38,62.657c-1.612,0-3.225-.03-4.835.014-.726.02-.928-.224-.938-.946A12.848,12.848,0,0,1,70.952,49.282a12.713,12.713,0,0,1,14.28,8.02c.289.806-.021,1.027-.611,1.337a33.63,33.63,0,0,1-14.786,3.983c-1.15.034-2.3,0-3.454,0v.031" transform="translate(-39.624 -32.084)" fill="#0069d0"/>
    <path id="Caminho_2468" data-name="Caminho 2468" d="M294.976,62.651a34.066,34.066,0,0,1-17.326-3.895c-.827-.428-1.121-.747-.722-1.744a12.713,12.713,0,0,1,14.2-7.733,12.861,12.861,0,0,1,10.321,12.327c.012.9-.291,1.088-1.1,1.061-1.564-.053-3.131-.016-5.368-.016" transform="translate(-180.939 -32.077)" fill="#0069d0"/>
    <path id="Caminho_2469" data-name="Caminho 2469" d="M191,200.394c-2.344-5.329-4.635-10.284-6.686-15.336-.7-1.736-.179-3.733-.19-5.609,0-.747.629-.32.936-.241a25.534,25.534,0,0,0,7.8.676,18.845,18.845,0,0,0,4.072-.685c.872-.243.951.042,1,.815a16.052,16.052,0,0,1-1.6,8.376c-1.9,3.8-3.471,7.771-5.329,12" transform="translate(-120.262 -117.039)" fill="#78b4d0"/>
    <path id="Caminho_2470" data-name="Caminho 2470" d="M139.95,157.319c-4.239-2.434-9.067-2.981-13.7-4.188-.705-.184-1.02-.408-1.056-1.245-.071-1.687.117-3.016,1.807-4.005,1.651-.967,2.755-2.632,3.974-4.306a25.73,25.73,0,0,0,5.753,7.272,3.527,3.527,0,0,0,.733.62c2.542,1.134,3.239,3.107,2.485,5.853" transform="translate(-81.846 -93.868)" fill="#fefefe"/>
    <path id="Caminho_2471" data-name="Caminho 2471" d="M240.29,157.366c-.742-2.668.069-4.352,2.376-5.782a18.022,18.022,0,0,0,5.68-6.282c.3-.508.613-1.014.988-1.633a24.075,24.075,0,0,0,5.21,5.365c1.1.855.4,2.319.432,3.494.023.772-.891.573-1.411.719-3.131.876-6.341,1.44-9.451,2.417-1.353.425-2.544,1.194-3.824,1.7" transform="translate(-156.927 -93.93)" fill="#fefefe"/>
    <path id="Caminho_2472" data-name="Caminho 2472" d="M93.393,166.675c.776,5.169-2.64,8.957-3.849,13.415l-.371.011c-1.335-3.231-2.75-6.432-3.952-9.711a10.317,10.317,0,0,1-.078-3.15c-.013-.6.334-.513.72-.437a18.455,18.455,0,0,0,7.53-.128" transform="translate(-55.606 -108.972)" fill="#78b4d0"/>
    <path id="Caminho_2473" data-name="Caminho 2473" d="M303.34,180.413c-1.41-3.383-2.718-6.408-3.926-9.473-.514-1.307-.113-2.718-.216-4.254a19.169,19.169,0,0,0,7.8.088c.5-.105.534.179.526.528a10.822,10.822,0,0,1-.578,4.582c-1.245,2.689-2.321,5.455-3.61,8.529" transform="translate(-195.581 -108.979)" fill="#78b4d0"/>
    <path id="Caminho_2474" data-name="Caminho 2474" d="M268.318,192.883c-4.357-1.849-8.745-2.421-13.247-3.719a53.318,53.318,0,0,1,7.05-1.885c1.146-.283,2.535-1.138,3.393-.613.836.511,1.059,2.036,1.53,3.126.4.923.768,1.859,1.274,3.092" transform="translate(-166.765 -121.932)" fill="#0069d0"/>
    <path id="Caminho_2475" data-name="Caminho 2475" d="M128.27,188.889c-4.193,1.526-8.6,2.068-12.992,3.942.92-2.188,1.741-4.141,2.561-6.093.185-.438.5-.266.811-.191q4.809,1.174,9.62,2.342" transform="translate(-75.368 -121.901)" fill="#0069d0"/>
  </g>
</svg>
