<svg id="Componente_1_1" data-name="Componente 1 – 1" xmlns="http://www.w3.org/2000/svg" width="57.985" height="81.18" viewBox="0 0 57.985 81.18">
  <path id="Caminho_2198" data-name="Caminho 2198" d="M267.638,177.764a8.35,8.35,0,0,1-8.34,8.34H251.99v2.383H259.3a10.735,10.735,0,0,0,10.723-10.723V138.1h-2.383Z" transform="translate(-212.036 -116.204)" fill="#fff"/>
  <path id="Caminho_2199" data-name="Caminho 2199" d="M103.857,0H67.26V2.383h36.6a8.35,8.35,0,0,1,8.34,8.34v11.96h2.383V10.723A10.734,10.734,0,0,0,103.857,0Z" transform="translate(-56.596)" fill="#fff"/>
  <path id="Caminho_2200" data-name="Caminho 2200" d="M2.383,10.723a8.35,8.35,0,0,1,8.34-8.34h2.315V0H10.723A10.735,10.735,0,0,0,0,10.723V52.209H2.383Z" fill="#fff"/>
  <path id="Caminho_2201" data-name="Caminho 2201" d="M2.383,334.45V324.31H0v10.14a10.735,10.735,0,0,0,10.723,10.723h7.308v-2.383H10.723A8.35,8.35,0,0,1,2.383,334.45Z" transform="translate(0 -272.889)" fill="#fff"/>
  <path id="Caminho_2202" data-name="Caminho 2202" d="M40.08,87.433h8.34V85.05H42.463V52.483H82.974V85.05H47.632v2.383H85.357V50.1H40.08Z" transform="translate(-33.725 -42.156)" fill="#fff"/>
  <path id="Caminho_2203" data-name="Caminho 2203" d="M153.774,309.328V300.59h-13.5v8.738Zm-11.121-6.355h8.738v3.972h-8.738Z" transform="translate(-118.03 -252.93)" fill="#fff"/>
  <path id="Caminho_2204" data-name="Caminho 2204" d="M35.07,304.95a4.373,4.373,0,0,0,4.368,4.368h9.134V300.58H39.438A4.376,4.376,0,0,0,35.07,304.95Zm11.121,1.985H39.438a1.985,1.985,0,1,1,0-3.97h6.753Z" transform="translate(-29.51 -252.922)" fill="#fff"/>
  <path id="Caminho_2205" data-name="Caminho 2205" d="M254.614,300.59H245.48v8.738h9.134a4.369,4.369,0,0,0,0-8.738Zm0,6.353h-6.753v-3.972h6.753a1.986,1.986,0,0,1,0,3.972Z" transform="translate(-206.558 -252.93)" fill="#fff"/>
  <path id="Caminho_2206" data-name="Caminho 2206" d="M134.376,88.239l4.665,7.209,2.291-.847L134.376,83.85,126.67,95.761a8.765,8.765,0,0,0-1.43,4.763,9.136,9.136,0,0,0,18.269,0,8.743,8.743,0,0,0-1.43-4.763l-1.039-1.608-2,1.3,1.04,1.608a6.3,6.3,0,0,1,1.048,3.469,6.755,6.755,0,0,1-13.5,0,6.378,6.378,0,0,1,1.048-3.469Z" transform="translate(-105.383 -70.555)" fill="#fff"/>
  <path id="Caminho_2207" data-name="Caminho 2207" d="M134.96,376.73H112.72v2.383H115.5v19.064h16.681V379.115h2.779V376.73ZM129.8,395.795H117.884v-8.738H129.8Zm0-11.121H117.884v-5.561H129.8Z" transform="translate(-94.848 -316.998)" fill="#fff"/>
</svg>
