<svg id="Grupo_825" data-name="Grupo 825" xmlns="http://www.w3.org/2000/svg" xmlns:xlink="http://www.w3.org/1999/xlink" width="78.749" height="86.531" viewBox="0 0 78.749 86.531">
  <defs>
    <clipPath id="clip-path">
      <rect id="Retângulo_290" data-name="Retângulo 290" width="78.749" height="86.531" fill="#fff"/>
    </clipPath>
  </defs>
  <g id="Grupo_824" data-name="Grupo 824" clip-path="url(#clip-path)">
    <path id="Caminho_2364" data-name="Caminho 2364" d="M151.134,86.531a1.76,1.76,0,0,0,.7-2.115,46.24,46.24,0,0,0-1.209-5.052,12.689,12.689,0,0,0-5.606-6.632c-4.146-2.438-8.307-4.85-12.462-7.272a2.469,2.469,0,0,1-.7-2.442c.164-.3.453-.165.679-.16q2.914.06,5.827.153c2.625.08,3.5-.485,4.491-2.9.363-.883.756-1.754,1.118-2.637a2.467,2.467,0,0,0-1.224-3.345c-1.105-.552-2.232-1.067-3.377-1.532a1.086,1.086,0,0,1-.754-1.151,18.27,18.27,0,0,0-.144-2.189c-.076-.576.077-.829.685-.833,1.379-.009,2.758-.068,4.138-.088a2.351,2.351,0,0,0,2.674-2.018c.108-.392.278-.5.635-.475a2.647,2.647,0,0,0,3.021-1.773,4.454,4.454,0,0,0-.628-4.54c-1.379-1.56-2.747-3.131-4.161-4.659a2.276,2.276,0,0,1-.647-1.727c.044-2.365,0-4.732.036-7.1a18.7,18.7,0,0,1,.891-3.836,40.456,40.456,0,0,0,.726-12.329A15.539,15.539,0,0,0,141.669.765a2.3,2.3,0,0,0-3.84.665c-.148.331-.252.682-.369,1.027a2.174,2.174,0,0,1-2.487,1.771q-7.647,0-15.294,0a16.558,16.558,0,0,0-16.493,13.818,12.731,12.731,0,0,0-.194,2.351c.042,3.6-.182,7.208.14,10.807a20.97,20.97,0,0,0,2.144,7.472,4.517,4.517,0,0,1,.492,2.1,15.576,15.576,0,0,0,.177,3.786,7.337,7.337,0,0,0,6.839,5.766c.575.042.713.213.669.732a3.566,3.566,0,0,0,.98,2.941.971.971,0,0,1,.212.781c0,3.1-.034,6.2.015,9.294a1.491,1.491,0,0,1-.9,1.5c-3.974,2.284-7.9,4.645-11.889,6.91a13.369,13.369,0,0,0-6.839,9.976,12.2,12.2,0,0,1-.379,1.977,1.619,1.619,0,0,0,.709,2.091h.845a1.95,1.95,0,0,0,.932-1.423c.112-.718.3-1.423.412-2.142a10.3,10.3,0,0,1,4.383-7.48c2.316-1.534,4.78-2.846,7.166-4.276.389-.233.632-.015.912.153a33.249,33.249,0,0,0,6.353,3.285A1.4,1.4,0,0,0,118.284,74c.274-.71-.115-1.414-1.017-1.731a27,27,0,0,1-4.819-2.4c-.413-.245-.412-.363,0-.6.98-.551,1.925-1.164,2.909-1.706a3.324,3.324,0,0,0,1.856-3.235c-.043-2.026-.023-4.054-.015-6.082a1.94,1.94,0,0,1,.17-1.173c.373.4.722.747,1.046,1.118a12.363,12.363,0,0,0,10.112,4.5c.61-.019.81.21.749.78-.027.251.008.507-.008.759a3.347,3.347,0,0,0,1.982,3.414c.944.5,1.846,1.074,2.768,1.613.27.158.533.274.073.556a23.6,23.6,0,0,1-5.607,2.675,18.088,18.088,0,0,1-5.652.723c-.723-.02-1.37.17-1.589.962-.236.853.327,1.565,1.346,1.6a21.192,21.192,0,0,0,6.083-.691,27.417,27.417,0,0,0,7.709-3.7,1.09,1.09,0,0,1,1.3-.013c2.1,1.257,4.233,2.453,6.326,3.72a10.055,10.055,0,0,1,3.852,4.264,19.735,19.735,0,0,1,1.252,4.515c.215.953.1,2.069,1.174,2.649ZM140.071,2.87a15.662,15.662,0,0,1,1.763,2.594c2.042,3.744,1.6,7.8,1.437,11.8a22.051,22.051,0,0,1-.714,4.562c-.076.3-.063.537-.5.362a3.328,3.328,0,0,0-3.169.611c-1.228.793-2.451,1.6-3.721,2.319a42.072,42.072,0,0,1-8.1,3.49c-.565.179-1.032.46-1.106,1.124-.118,1.069.77,1.65,1.948,1.283a46.436,46.436,0,0,0,12.423-6.1c.309-.211.6-.444,1-.265.431.195.346.593.345.953,0,2.788.03,5.577-.026,8.364a2.738,2.738,0,0,0,.8,2.029c1.495,1.647,2.939,3.34,4.44,4.98a2.1,2.1,0,0,1,.328,2.065c-.131.532-.838.142-1.278.233a3.005,3.005,0,0,1-.59.006c-1.487,0-1.849.325-1.875,1.818-.009.556-.175.722-.732.715a30.537,30.537,0,0,0-4.387.117,2.694,2.694,0,0,0-2.425,2.769c.016,1.18.077,2.363.188,3.537a2.879,2.879,0,0,0,1.787,2.474c1.049.475,2.092.964,3.153,1.411.452.19.6.388.362.875a17.459,17.459,0,0,0-1.008,2.4c-.283.908-.842,1.1-1.72,1.067-3.6-.134-7.205-.188-10.807-.307a9.445,9.445,0,0,1-6.679-2.777c-1.6-1.623-3.159-3.286-4.745-4.923a1.657,1.657,0,0,1-.488-1.292c.027-.7.025-1.409,0-2.112a1.162,1.162,0,0,0-1.21-1.239c-.533-.029-1.07,0-1.6-.016a4.763,4.763,0,0,1-4.754-3.99c-.158-1.42-.047-2.869-.068-4.3a1.434,1.434,0,0,1,.821-1.522,1.577,1.577,0,0,1,1.8.288c.79.679,1.577,1.361,2.374,2.031a1.8,1.8,0,0,0,2.042.327,1.868,1.868,0,0,0,1.122-1.828c-.026-1.633.011-3.268-.045-4.9-.021-.612.155-.845.762-.89a36.129,36.129,0,0,0,4.6-.558c.845-.173,1.321-.76,1.2-1.444a1.328,1.328,0,0,0-1.645-1.063c-1.658.322-3.343.415-5.014.616-1.774.213-2.469.987-2.452,2.764.012,1.307,0,2.615,0,4.176-2.093-2.22-4.278-3.127-6.888-1.2a19.551,19.551,0,0,1-1.342-5.445c-.32-3.373-.1-6.754-.145-10.13a12.343,12.343,0,0,1,.26-2.511,13.922,13.922,0,0,1,13.95-11.457c5.238-.006,10.477.012,15.715-.01a4.424,4.424,0,0,0,4.15-2.674c.175-.349.288-.729.475-1.211" transform="translate(-94.522 0)" fill="#fff"/>
    <path id="Caminho_2365" data-name="Caminho 2365" d="M55.871,171.4a3.461,3.461,0,0,0-2.744,1.122,11.454,11.454,0,0,0-1.927,2.85,2.137,2.137,0,0,0,1.124,2.939,10.858,10.858,0,0,0,3.414.833,3.873,3.873,0,1,0,.133-7.744" transform="translate(7.523 -132.701)" fill="#fff"/>
    <path id="Caminho_2366" data-name="Caminho 2366" d="M55.781,251.458a9.992,9.992,0,0,0-3.434.82,2.1,2.1,0,0,0-1.148,2.977,10.606,10.606,0,0,0,2,2.9,3.665,3.665,0,0,0,4.2.7,4.152,4.152,0,0,0,2.285-3.908,4.051,4.051,0,0,0-2.919-3.443,6.448,6.448,0,0,0-.979-.051" transform="translate(7.547 -194.686)" fill="#fff"/>
    <path id="Caminho_2367" data-name="Caminho 2367" d="M8.794,216.075A3.745,3.745,0,0,0,3.481,212.7a10.391,10.391,0,0,0-2.759,1.912,2,2,0,0,0,.035,3.108,13.713,13.713,0,0,0,2.622,1.827,3.763,3.763,0,0,0,5.416-3.472" transform="translate(69.953 -164.408)" fill="#fff"/>
    <path id="Caminho_2368" data-name="Caminho 2368" d="M101.4,226.018a10.121,10.121,0,0,0,1.177-.008,1.344,1.344,0,0,0,1.256-1.34,1.264,1.264,0,0,0-1.282-1.211c-.812-.029-1.628-.033-2.438.019a1.154,1.154,0,0,0-1.18,1.266,1.219,1.219,0,0,0,1.207,1.265,9.5,9.5,0,0,0,1.261.01" transform="translate(-47.424 -172.991)" fill="#fff"/>
    <path id="Caminho_2369" data-name="Caminho 2369" d="M19.256,179.3a11.182,11.182,0,0,0,2.724-1.12,1.119,1.119,0,0,0,.3-1.515,1.141,1.141,0,0,0-1.4-.656,25.175,25.175,0,0,0-2.5.957,1.137,1.137,0,0,0-.677,1.458c.188.621.632.982,1.554.876" transform="translate(52.321 -136.227)" fill="#fff"/>
    <path id="Caminho_2370" data-name="Caminho 2370" d="M17.731,268.619a1.287,1.287,0,0,0,.888,1.131c.7.285,1.406.568,2.122.814a1.287,1.287,0,0,0,1.678-.709,1.251,1.251,0,0,0-.763-1.655c-.72-.311-1.453-.6-2.2-.841a1.288,1.288,0,0,0-1.726,1.26" transform="translate(52.234 -206.941)" fill="#fff"/>
    <path id="Caminho_2371" data-name="Caminho 2371" d="M60.382,225.988c.2,0,.394.012.589,0a1.335,1.335,0,0,0,1.4-1.355c-.015-.709-.548-1.179-1.428-1.225a8.577,8.577,0,0,0-1.261.01,1.311,1.311,0,0,0-1.3,1.286,1.361,1.361,0,0,0,1.318,1.283c.222.022.448,0,.673,0" transform="translate(3.191 -172.953)" fill="#fff"/>
    <path id="Caminho_2372" data-name="Caminho 2372" d="M268.22,185.859c0-1.4-.441-1.964-1.432-1.845-.878.1-1.155.678-1.107,2.289a1.32,1.32,0,0,0,1.212,1.452c.921.056,1.331-.53,1.327-1.9" transform="translate(-249.453 -142.457)" fill="#fff"/>
  </g>
</svg>
